<mxfile host="app.diagrams.net" modified="2024-04-21T20:23:18.484Z" agent="Mozilla/5.0 (Windows NT 10.0; Win64; x64) AppleWebKit/537.36 (KHTML, like Gecko) Chrome/123.0.0.0 Safari/537.36" etag="4Gnsx8TstUGVaoWLUFoa" version="24.2.7" type="github">
  <diagram name="Page-1" id="0ffbghuXQ01HjlBCaT7o">
    <mxGraphModel dx="1050" dy="1657" grid="1" gridSize="10" guides="1" tooltips="1" connect="1" arrows="1" fold="1" page="1" pageScale="1" pageWidth="850" pageHeight="1100" math="0" shadow="0">
      <root>
        <mxCell id="0" />
        <mxCell id="1" parent="0" />
        <mxCell id="nXj0Xn3OutAvkKhU1raj-2" value="AWS Cloud9" style="sketch=0;outlineConnect=0;fontColor=#232F3E;gradientColor=none;strokeColor=#ffffff;fillColor=#232F3E;dashed=0;verticalLabelPosition=middle;verticalAlign=bottom;align=center;html=1;whiteSpace=wrap;fontSize=13;fontStyle=1;spacing=3;shape=mxgraph.aws4.productIcon;prIcon=mxgraph.aws4.cloud9;fontFamily=Times New Roman;" vertex="1" parent="1">
          <mxGeometry x="40" y="100" width="80" height="100" as="geometry" />
        </mxCell>
        <mxCell id="nXj0Xn3OutAvkKhU1raj-3" value="AWS CodePipeline" style="sketch=0;outlineConnect=0;fontColor=#232F3E;gradientColor=none;strokeColor=#ffffff;fillColor=#232F3E;dashed=0;verticalLabelPosition=middle;verticalAlign=bottom;align=center;html=1;whiteSpace=wrap;fontSize=13;fontStyle=1;spacing=3;shape=mxgraph.aws4.productIcon;prIcon=mxgraph.aws4.codepipeline;fontFamily=Times New Roman;" vertex="1" parent="1">
          <mxGeometry x="190" y="99" width="80" height="110" as="geometry" />
        </mxCell>
        <mxCell id="nXj0Xn3OutAvkKhU1raj-4" value="" style="dashed=0;outlineConnect=0;html=1;align=center;labelPosition=center;verticalLabelPosition=bottom;verticalAlign=top;shape=mxgraph.webicons.github;gradientColor=#DFDEDE;fontFamily=Times New Roman;fontStyle=1;fontSize=13;" vertex="1" parent="1">
          <mxGeometry x="348" y="99" width="100" height="82.4" as="geometry" />
        </mxCell>
        <mxCell id="nXj0Xn3OutAvkKhU1raj-5" value="" style="endArrow=classic;html=1;rounded=0;fontFamily=Times New Roman;fontStyle=1;fontSize=13;" edge="1" parent="1">
          <mxGeometry width="50" height="50" relative="1" as="geometry">
            <mxPoint x="80" y="300" as="sourcePoint" />
            <mxPoint x="80" y="210" as="targetPoint" />
          </mxGeometry>
        </mxCell>
        <mxCell id="nXj0Xn3OutAvkKhU1raj-6" value="" style="endArrow=classic;html=1;rounded=0;fontFamily=Times New Roman;fontStyle=1;fontSize=13;" edge="1" parent="1">
          <mxGeometry width="50" height="50" relative="1" as="geometry">
            <mxPoint x="120" y="140" as="sourcePoint" />
            <mxPoint x="190" y="140" as="targetPoint" />
          </mxGeometry>
        </mxCell>
        <mxCell id="nXj0Xn3OutAvkKhU1raj-7" value="" style="endArrow=classic;html=1;rounded=0;fontFamily=Times New Roman;fontStyle=1;fontSize=13;" edge="1" parent="1">
          <mxGeometry width="50" height="50" relative="1" as="geometry">
            <mxPoint x="270" y="140" as="sourcePoint" />
            <mxPoint x="340" y="140" as="targetPoint" />
          </mxGeometry>
        </mxCell>
        <mxCell id="nXj0Xn3OutAvkKhU1raj-8" value="GitHub Version 1" style="text;html=1;align=center;verticalAlign=middle;whiteSpace=wrap;rounded=0;fontFamily=Times New Roman;fontStyle=1;fontSize=13;" vertex="1" parent="1">
          <mxGeometry x="368" y="181" width="60" height="30" as="geometry" />
        </mxCell>
        <mxCell id="nXj0Xn3OutAvkKhU1raj-9" value="AWS EC2 Instance" style="text;html=1;align=center;verticalAlign=middle;whiteSpace=wrap;rounded=0;fontFamily=Times New Roman;fontStyle=1;fontSize=13;" vertex="1" parent="1">
          <mxGeometry x="48" y="381" width="60" height="30" as="geometry" />
        </mxCell>
        <mxCell id="nXj0Xn3OutAvkKhU1raj-10" value="AWS CodeBuild" style="sketch=0;outlineConnect=0;fontColor=#232F3E;gradientColor=none;strokeColor=#ffffff;fillColor=#232F3E;dashed=0;verticalLabelPosition=middle;verticalAlign=bottom;align=center;html=1;whiteSpace=wrap;fontSize=13;fontStyle=1;spacing=3;shape=mxgraph.aws4.productIcon;prIcon=mxgraph.aws4.codebuild;fontFamily=Times New Roman;" vertex="1" parent="1">
          <mxGeometry x="517" y="101" width="80" height="110" as="geometry" />
        </mxCell>
        <mxCell id="nXj0Xn3OutAvkKhU1raj-11" value="" style="endArrow=classic;html=1;rounded=0;fontFamily=Times New Roman;fontStyle=1;fontSize=13;" edge="1" parent="1">
          <mxGeometry width="50" height="50" relative="1" as="geometry">
            <mxPoint x="450" y="140" as="sourcePoint" />
            <mxPoint x="510" y="140" as="targetPoint" />
          </mxGeometry>
        </mxCell>
        <mxCell id="nXj0Xn3OutAvkKhU1raj-12" value="" style="sketch=0;points=[[0,0,0],[0.25,0,0],[0.5,0,0],[0.75,0,0],[1,0,0],[0,1,0],[0.25,1,0],[0.5,1,0],[0.75,1,0],[1,1,0],[0,0.25,0],[0,0.5,0],[0,0.75,0],[1,0.25,0],[1,0.5,0],[1,0.75,0]];points=[[0,0,0],[0.25,0,0],[0.5,0,0],[0.75,0,0],[1,0,0],[0,1,0],[0.25,1,0],[0.5,1,0],[0.75,1,0],[1,1,0],[0,0.25,0],[0,0.5,0],[0,0.75,0],[1,0.25,0],[1,0.5,0],[1,0.75,0]];outlineConnect=0;fontColor=#232F3E;fillColor=#E7157B;strokeColor=#ffffff;dashed=0;verticalLabelPosition=bottom;verticalAlign=top;align=center;html=1;fontSize=13;fontStyle=1;aspect=fixed;shape=mxgraph.aws4.resourceIcon;resIcon=mxgraph.aws4.cloudwatch_2;fontFamily=Times New Roman;" vertex="1" parent="1">
          <mxGeometry x="361" y="292" width="78" height="78" as="geometry" />
        </mxCell>
        <mxCell id="nXj0Xn3OutAvkKhU1raj-13" value="" style="endArrow=classic;html=1;rounded=0;fontFamily=Times New Roman;fontStyle=1;fontSize=13;" edge="1" parent="1">
          <mxGeometry width="50" height="50" relative="1" as="geometry">
            <mxPoint x="400" y="220" as="sourcePoint" />
            <mxPoint x="400" y="290" as="targetPoint" />
          </mxGeometry>
        </mxCell>
        <mxCell id="nXj0Xn3OutAvkKhU1raj-14" value="AWS Cloudwatch" style="text;html=1;align=center;verticalAlign=middle;whiteSpace=wrap;rounded=0;fontFamily=Times New Roman;fontStyle=1;fontSize=13;" vertex="1" parent="1">
          <mxGeometry x="371" y="372" width="60" height="30" as="geometry" />
        </mxCell>
        <mxCell id="nXj0Xn3OutAvkKhU1raj-15" value="Pylint" style="rounded=0;whiteSpace=wrap;html=1;fontFamily=Times New Roman;fontStyle=1;fontSize=13;" vertex="1" parent="1">
          <mxGeometry x="636" y="110" width="120" height="60" as="geometry" />
        </mxCell>
        <mxCell id="nXj0Xn3OutAvkKhU1raj-16" value="" style="endArrow=classic;html=1;rounded=0;entryX=0;entryY=0.5;entryDx=0;entryDy=0;fontFamily=Times New Roman;fontStyle=1;fontSize=13;" edge="1" parent="1" target="nXj0Xn3OutAvkKhU1raj-15">
          <mxGeometry width="50" height="50" relative="1" as="geometry">
            <mxPoint x="596" y="140" as="sourcePoint" />
            <mxPoint x="646" y="90" as="targetPoint" />
          </mxGeometry>
        </mxCell>
        <mxCell id="nXj0Xn3OutAvkKhU1raj-18" value="" style="sketch=0;points=[[0,0,0],[0.25,0,0],[0.5,0,0],[0.75,0,0],[1,0,0],[0,1,0],[0.25,1,0],[0.5,1,0],[0.75,1,0],[1,1,0],[0,0.25,0],[0,0.5,0],[0,0.75,0],[1,0.25,0],[1,0.5,0],[1,0.75,0]];outlineConnect=0;fontColor=#232F3E;fillColor=#ED7100;strokeColor=#ffffff;dashed=0;verticalLabelPosition=bottom;verticalAlign=top;align=center;html=1;fontSize=13;fontStyle=1;aspect=fixed;shape=mxgraph.aws4.resourceIcon;resIcon=mxgraph.aws4.elastic_beanstalk;fontFamily=Times New Roman;" vertex="1" parent="1">
          <mxGeometry x="814" y="101" width="78" height="78" as="geometry" />
        </mxCell>
        <mxCell id="nXj0Xn3OutAvkKhU1raj-19" value="" style="endArrow=classic;html=1;rounded=0;fontFamily=Times New Roman;fontStyle=1;fontSize=13;" edge="1" parent="1">
          <mxGeometry width="50" height="50" relative="1" as="geometry">
            <mxPoint x="758" y="140" as="sourcePoint" />
            <mxPoint x="810" y="140" as="targetPoint" />
          </mxGeometry>
        </mxCell>
        <mxCell id="nXj0Xn3OutAvkKhU1raj-20" value="AWS Elastic Beanstalk" style="text;html=1;align=center;verticalAlign=middle;whiteSpace=wrap;rounded=0;fontFamily=Times New Roman;fontStyle=1;fontSize=13;" vertex="1" parent="1">
          <mxGeometry x="827" y="190" width="60" height="30" as="geometry" />
        </mxCell>
        <mxCell id="nXj0Xn3OutAvkKhU1raj-21" value="" style="endArrow=none;html=1;rounded=0;fontFamily=Times New Roman;fontStyle=1;fontSize=13;" edge="1" parent="1">
          <mxGeometry width="50" height="50" relative="1" as="geometry">
            <mxPoint x="340" y="80" as="sourcePoint" />
            <mxPoint x="340" y="40" as="targetPoint" />
          </mxGeometry>
        </mxCell>
        <mxCell id="nXj0Xn3OutAvkKhU1raj-22" value="" style="endArrow=none;html=1;rounded=0;fontFamily=Times New Roman;fontStyle=1;fontSize=13;" edge="1" parent="1">
          <mxGeometry width="50" height="50" relative="1" as="geometry">
            <mxPoint x="340" y="41" as="sourcePoint" />
            <mxPoint x="890" y="40" as="targetPoint" />
          </mxGeometry>
        </mxCell>
        <mxCell id="nXj0Xn3OutAvkKhU1raj-23" value="" style="endArrow=none;html=1;rounded=0;fontFamily=Times New Roman;fontStyle=1;fontSize=13;" edge="1" parent="1">
          <mxGeometry width="50" height="50" relative="1" as="geometry">
            <mxPoint x="520" y="80" as="sourcePoint" />
            <mxPoint x="520" y="40" as="targetPoint" />
          </mxGeometry>
        </mxCell>
        <mxCell id="nXj0Xn3OutAvkKhU1raj-25" value="" style="endArrow=none;html=1;rounded=0;fontFamily=Times New Roman;fontStyle=1;fontSize=13;" edge="1" parent="1">
          <mxGeometry width="50" height="50" relative="1" as="geometry">
            <mxPoint x="755" y="439" as="sourcePoint" />
            <mxPoint x="755" y="399" as="targetPoint" />
          </mxGeometry>
        </mxCell>
        <mxCell id="nXj0Xn3OutAvkKhU1raj-26" value="Source" style="text;html=1;align=center;verticalAlign=middle;whiteSpace=wrap;rounded=0;fontFamily=Times New Roman;fontStyle=1;fontSize=13;" vertex="1" parent="1">
          <mxGeometry x="387" y="5" width="60" height="30" as="geometry" />
        </mxCell>
        <mxCell id="nXj0Xn3OutAvkKhU1raj-27" value="Build" style="text;html=1;align=center;verticalAlign=middle;whiteSpace=wrap;rounded=0;fontFamily=Times New Roman;fontStyle=1;fontSize=13;" vertex="1" parent="1">
          <mxGeometry x="610" y="5" width="60" height="30" as="geometry" />
        </mxCell>
        <mxCell id="nXj0Xn3OutAvkKhU1raj-28" value="Deploy" style="text;html=1;align=center;verticalAlign=middle;whiteSpace=wrap;rounded=0;fontFamily=Times New Roman;fontStyle=1;fontSize=13;" vertex="1" parent="1">
          <mxGeometry x="770" y="10" width="60" height="30" as="geometry" />
        </mxCell>
        <mxCell id="nXj0Xn3OutAvkKhU1raj-29" value="Static Code Analysis" style="text;html=1;align=center;verticalAlign=middle;whiteSpace=wrap;rounded=0;fontFamily=Times New Roman;fontStyle=1;fontSize=13;" vertex="1" parent="1">
          <mxGeometry x="580" y="60" width="60" height="30" as="geometry" />
        </mxCell>
        <mxCell id="nXj0Xn3OutAvkKhU1raj-31" value="" style="endArrow=none;html=1;rounded=0;fontFamily=Times New Roman;fontStyle=1;fontSize=13;" edge="1" parent="1">
          <mxGeometry width="50" height="50" relative="1" as="geometry">
            <mxPoint x="340" y="439" as="sourcePoint" />
            <mxPoint x="340" y="399" as="targetPoint" />
          </mxGeometry>
        </mxCell>
        <mxCell id="nXj0Xn3OutAvkKhU1raj-32" value="" style="endArrow=none;html=1;rounded=0;fontFamily=Times New Roman;fontStyle=1;fontSize=13;" edge="1" parent="1">
          <mxGeometry width="50" height="50" relative="1" as="geometry">
            <mxPoint x="340" y="440" as="sourcePoint" />
            <mxPoint x="890" y="440" as="targetPoint" />
          </mxGeometry>
        </mxCell>
        <mxCell id="nXj0Xn3OutAvkKhU1raj-33" value="Continuous Integration" style="text;html=1;align=center;verticalAlign=middle;whiteSpace=wrap;rounded=0;fontFamily=Times New Roman;fontStyle=1;fontSize=13;" vertex="1" parent="1">
          <mxGeometry x="525" y="444" width="60" height="30" as="geometry" />
        </mxCell>
        <mxCell id="nXj0Xn3OutAvkKhU1raj-34" value="Continuous Delivery &amp;amp; Continuous Deployment" style="text;html=1;align=center;verticalAlign=middle;whiteSpace=wrap;rounded=0;fontFamily=Times New Roman;fontStyle=1;fontSize=13;" vertex="1" parent="1">
          <mxGeometry x="767" y="447" width="121" height="30" as="geometry" />
        </mxCell>
        <mxCell id="nXj0Xn3OutAvkKhU1raj-35" value="" style="endArrow=none;html=1;rounded=0;fontFamily=Times New Roman;fontStyle=1;fontSize=13;" edge="1" parent="1">
          <mxGeometry width="50" height="50" relative="1" as="geometry">
            <mxPoint x="890" y="80" as="sourcePoint" />
            <mxPoint x="890" y="40" as="targetPoint" />
          </mxGeometry>
        </mxCell>
        <mxCell id="nXj0Xn3OutAvkKhU1raj-36" value="" style="endArrow=none;html=1;rounded=0;fontFamily=Times New Roman;fontStyle=1;fontSize=13;" edge="1" parent="1">
          <mxGeometry width="50" height="50" relative="1" as="geometry">
            <mxPoint x="890" y="441" as="sourcePoint" />
            <mxPoint x="890" y="401" as="targetPoint" />
          </mxGeometry>
        </mxCell>
        <mxCell id="nXj0Xn3OutAvkKhU1raj-37" value="" style="sketch=0;points=[[0,0,0],[0.25,0,0],[0.5,0,0],[0.75,0,0],[1,0,0],[0,1,0],[0.25,1,0],[0.5,1,0],[0.75,1,0],[1,1,0],[0,0.25,0],[0,0.5,0],[0,0.75,0],[1,0.25,0],[1,0.5,0],[1,0.75,0]];outlineConnect=0;fontColor=#232F3E;fillColor=#ED7100;strokeColor=#ffffff;dashed=0;verticalLabelPosition=bottom;verticalAlign=top;align=center;html=1;fontSize=13;fontStyle=1;aspect=fixed;shape=mxgraph.aws4.resourceIcon;resIcon=mxgraph.aws4.ec2;fontFamily=Times New Roman;" vertex="1" parent="1">
          <mxGeometry x="40" y="300" width="78" height="78" as="geometry" />
        </mxCell>
        <mxCell id="nXj0Xn3OutAvkKhU1raj-38" value="" style="sketch=0;points=[[0,0,0],[0.25,0,0],[0.5,0,0],[0.75,0,0],[1,0,0],[0,1,0],[0.25,1,0],[0.5,1,0],[0.75,1,0],[1,1,0],[0,0.25,0],[0,0.5,0],[0,0.75,0],[1,0.25,0],[1,0.5,0],[1,0.75,0]];outlineConnect=0;fontColor=#232F3E;fillColor=#7AA116;strokeColor=#ffffff;dashed=0;verticalLabelPosition=bottom;verticalAlign=top;align=center;html=1;fontSize=13;fontStyle=1;aspect=fixed;shape=mxgraph.aws4.resourceIcon;resIcon=mxgraph.aws4.s3;fontFamily=Times New Roman;" vertex="1" parent="1">
          <mxGeometry x="199" y="255" width="78" height="78" as="geometry" />
        </mxCell>
        <mxCell id="nXj0Xn3OutAvkKhU1raj-40" value="" style="endArrow=classic;html=1;rounded=0;entryX=0;entryY=0.5;entryDx=0;entryDy=0;entryPerimeter=0;fontFamily=Times New Roman;fontSize=13;fontStyle=1" edge="1" parent="1" target="nXj0Xn3OutAvkKhU1raj-38">
          <mxGeometry width="50" height="50" relative="1" as="geometry">
            <mxPoint x="119" y="295" as="sourcePoint" />
            <mxPoint x="169" y="245" as="targetPoint" />
          </mxGeometry>
        </mxCell>
        <mxCell id="nXj0Xn3OutAvkKhU1raj-41" value="AWS S3 Bucket" style="text;html=1;align=center;verticalAlign=middle;whiteSpace=wrap;rounded=0;fontFamily=Times New Roman;fontStyle=1;fontSize=13;" vertex="1" parent="1">
          <mxGeometry x="207" y="337" width="60" height="30" as="geometry" />
        </mxCell>
        <mxCell id="nXj0Xn3OutAvkKhU1raj-42" value="" style="endArrow=classic;html=1;rounded=0;fontFamily=Times New Roman;fontSize=13;fontStyle=1" edge="1" parent="1">
          <mxGeometry width="50" height="50" relative="1" as="geometry">
            <mxPoint x="119" y="295" as="sourcePoint" />
            <mxPoint x="119" y="210" as="targetPoint" />
          </mxGeometry>
        </mxCell>
        <mxCell id="nXj0Xn3OutAvkKhU1raj-44" value="" style="endArrow=none;html=1;rounded=0;fontFamily=Times New Roman;fontSize=13;fontStyle=1" edge="1" parent="1">
          <mxGeometry width="50" height="50" relative="1" as="geometry">
            <mxPoint x="120" y="90" as="sourcePoint" />
            <mxPoint x="120" y="40" as="targetPoint" />
          </mxGeometry>
        </mxCell>
        <mxCell id="nXj0Xn3OutAvkKhU1raj-45" value="" style="endArrow=classic;html=1;rounded=0;fontFamily=Times New Roman;fontSize=13;fontStyle=1" edge="1" parent="1">
          <mxGeometry width="50" height="50" relative="1" as="geometry">
            <mxPoint x="120" y="40" as="sourcePoint" />
            <mxPoint x="190" y="40" as="targetPoint" />
          </mxGeometry>
        </mxCell>
        <mxCell id="nXj0Xn3OutAvkKhU1raj-46" value="" style="endArrow=none;html=1;rounded=0;fontFamily=Times New Roman;fontStyle=1;fontSize=13;" edge="1" parent="1">
          <mxGeometry width="50" height="50" relative="1" as="geometry">
            <mxPoint x="756" y="81" as="sourcePoint" />
            <mxPoint x="756" y="41" as="targetPoint" />
          </mxGeometry>
        </mxCell>
        <mxCell id="nXj0Xn3OutAvkKhU1raj-47" value="Packages :&lt;div style=&quot;font-size: 13px;&quot;&gt;boto3 : 1.34.88&lt;/div&gt;&lt;div style=&quot;font-size: 13px;&quot;&gt;s3transfer : 0.10.1&lt;/div&gt;&lt;div style=&quot;font-size: 13px;&quot;&gt;botocore: 1.34.88&lt;/div&gt;" style="text;html=1;align=center;verticalAlign=middle;whiteSpace=wrap;rounded=0;fontFamily=Times New Roman;fontSize=13;fontStyle=1" vertex="1" parent="1">
          <mxGeometry x="128" y="209" width="70" height="60" as="geometry" />
        </mxCell>
        <mxCell id="nXj0Xn3OutAvkKhU1raj-49" value="&lt;font style=&quot;font-size: 13px;&quot;&gt;&lt;span style=&quot;font-size: 13px;&quot;&gt;setup.py :&lt;/span&gt;&lt;/font&gt;&lt;div style=&quot;font-size: 13px;&quot;&gt;&lt;p style=&quot;text-align: justify; font-size: 13px;&quot; class=&quot;MsoNormal&quot;&gt;&lt;span style=&quot;font-size: 13px;&quot; lang=&quot;EN-US&quot;&gt;&lt;font style=&quot;font-size: 13px;&quot;&gt;&lt;span style=&quot;font-size: 13px;&quot;&gt;name=&quot;pkg-newfinalcustom-pipeline-staging-final&quot;,&lt;/span&gt;&lt;/font&gt;&lt;/span&gt;&lt;span style=&quot;background-color: initial; font-size: 13px;&quot;&gt;version=&quot;0.1.0&quot;,&lt;/span&gt;&lt;/p&gt;&lt;/div&gt;" style="text;html=1;align=center;verticalAlign=middle;whiteSpace=wrap;rounded=0;fontFamily=Times New Roman;fontSize=13;fontStyle=1" vertex="1" parent="1">
          <mxGeometry x="23" y="-11.44" width="170" height="30" as="geometry" />
        </mxCell>
        <mxCell id="nXj0Xn3OutAvkKhU1raj-50" value="" style="shape=image;verticalLabelPosition=bottom;labelBackgroundColor=default;verticalAlign=top;aspect=fixed;imageAspect=0;image=data:image/jpeg,/9j/4AAQSkZJRgABAQEAeAB4AAD/2wBDAAMCAgMCAgMDAwMEAwMEBQgFBQQEBQoHBwYIDAoMDAsKCwsNDhIQDQ4RDgsLEBYQERMUFRUVDA8XGBYUGBIUFRT/2wBDAQMEBAUEBQkFBQkUDQsNFBQUFBQUFBQUFBQUFBQUFBQUFBQUFBQUFBQUFBQUFBQUFBQUFBQUFBQUFBQUFBQUFBT/wAARCAFlAV4DASIAAhEBAxEB/8QAHwAAAQUBAQEBAQEAAAAAAAAAAAECAwQFBgcICQoL/8QAtRAAAgEDAwIEAwUFBAQAAAF9AQIDAAQRBRIhMUEGE1FhByJxFDKBkaEII0KxwRVS0fAkM2JyggkKFhcYGRolJicoKSo0NTY3ODk6Q0RFRkdISUpTVFVWV1hZWmNkZWZnaGlqc3R1dnd4eXqDhIWGh4iJipKTlJWWl5iZmqKjpKWmp6ipqrKztLW2t7i5usLDxMXGx8jJytLT1NXW19jZ2uHi4+Tl5ufo6erx8vP09fb3+Pn6/8QAHwEAAwEBAQEBAQEBAQAAAAAAAAECAwQFBgcICQoL/8QAtREAAgECBAQDBAcFBAQAAQJ3AAECAxEEBSExBhJBUQdhcRMiMoEIFEKRobHBCSMzUvAVYnLRChYkNOEl8RcYGRomJygpKjU2Nzg5OkNERUZHSElKU1RVVldYWVpjZGVmZ2hpanN0dXZ3eHl6goOEhYaHiImKkpOUlZaXmJmaoqOkpaanqKmqsrO0tba3uLm6wsPExcbHyMnK0tPU1dbX2Nna4uPk5ebn6Onq8vP09fb3+Pn6/9oADAMBAAIRAxEAPwD9U6KKKACiiigAooooAKKKKACiiigAooooAKKKKACiiigAooooAKKKKACiikoAWikqOa4WGMszKgHUseKFrsJtLclpu8Zx3rgvGHxr8J+CYGfUtZtY2AztEgz/ADr5r8fft/WNv5lv4csvPl3YWSXIDfSumGGq1PhRyVMVTpfEz7PaRcnnGKRXD9DmvjP4d/t/2OoAReJdNFq68PJCTj9a+kfBvxs8IeNbeKTTdUhZpB/qy43ClVwtWlrJaFU8TSrL3Xqd/mjvmoYbiO4XdG4YexqZelcx0p3ClpDRTGLRRRQAUUUUAFFFFABRRRQAUUUUAFFFFABRRRQAUUUUAFFFFABRRRQAUUUUAFFFFABRRRQAUUUUAFFFML+9IWw+isrVNes9JjaS6ukhVeSCwz+VeJfEL9sfwZ4N8+C0u11S8jP+qgO8D2JHSto0py2RlOtCCu2e/NMqgk9K53xB8RPD/hWOR9U1GC0VBlt7DNfA3xI/bl8WeKFlttEjj0q0Y8OPvgfjXz74g8a654oneTVNVur5m6+Y5x+VezQyqpU1nojxa2b04vlp6s+9/iJ+3d4Z0FZ4NEjbUZ1yAw4WvmLx9+2B438bSSRxXR021bIEcLnp714T5SjkDml6V72Hy2lS1Z4WIzCrVehf1LWL/WJmkvbuW5Zjk72JrPZTipKQ/MK9JU4r4TglUlLcYuRV3TtUvNLnE9ncyW8y/ddGIxVUKPSlxiqlBSVmRzSWqPcPAf7XnjbwOscclyNStkx8suc/nX1B8Of26vDPiARQ63G2mTsOWbG3Nfnf5jDvmm/eYEjp0rz62X0Kq1Wp6dHH1aTP2X8N/EHw/wCK7dJtL1O3u0cZGxxn8q6JXDdK/GHw/wCNNc8J3UdxpOoT2jqc4jkIH5dK9/8Ah5+3J4t8OyRxayv9o2qnGcAOfxr5+pk9SEXJNHuU82hJpNM/SGivn34fftjeDPGU0Nrc3n9m3j4HlS4BJP8AP8K900vVLfVId8EyTr/ejORXhThKDtJHtwqRn8LL1FFFQahRRRQAUUUUAFFFFABRRRQAUUUUAFFFFABRRRQAUUUUAFFFFABRRSbqV0gFpM1FLdRwqWdwqjua4bxl8afCXgeKQ6lrNvFKoyIQ2XP4VpGEqjtFGFStCmryZ326q15qEFhG0k80caKMku2K+NviD+3/AGtm7weGNOe5IGPNmGBn15r5l8e/tGeOPH1zK13q00EL/wDLGFyoH5V6tDLKtV+8rHm1sypU1o7n6G+O/wBp/wAE+B45FuNRjuJ1HMMTZOa+Y/iJ+3xqOpLJa+G7AWy5IFxM+T7cYr5DmnmuZPMmkaV/7ztk01eOte5RyqNN80tTw6ubznFxR32tfHPxpr2prfXWtTmdDlVQ4Tnrkd+KVfiBpOvKqeJ9EhuiT811bHy3Pueua4JetOI3LgjI9K9RYemuhwSxM6nxM7iXwNouuZk8Pa1GrE/LZ3w2P+BGc1zuseDdW0BsX1nJF/tKNyn3zWUrFAoUlQvAx2rd034ga7o0awx3n2q0B/49rpRJHjuMHNaRjy6IwvCTvbU5/GOKT8K7g+JfCXiRfL1bR5NLum4+1aedqfUqCMfgKa3wxF5A0nh/VrfVkAz5ZcrL9MPjJ+lP2lt0PkT1OJo6CreoaTe6TOYby1mtpM4xKhXP0z1qrg7Qw5HtVKSexk0N6mjinYwA3GD05q/pvh/UdamEVjZTXLE4/doSPz6VXMNIztv+y1LXe23wpfTovO1/VLbTVGCYVPmyn2wucH61p2194X8OqTpejnULgfKZtSAcH3CHI/Op5vITaRxeh+Ctb8Rt/oWnyPHnmVvlUD1ya6i1+Huj+HZFl13WFeckf6Np48w/QsSMflS6p421nV0EEt46Wy/dhh+SMfRRWCy7pCxGW9e9P2M5bsPbRj0OtXxVp+gZ/wCEf0iG0m7XVwfMk+vQYr7r/ZB1K61X4crdXczTzyP8zNX50c45r9Dv2Mf+SWw/79eDnFGMKadtT3MnrOdR66H0HRSZpa+NPswooooAKKKKACiiigAooooAKKKKACiiigAooooAKKKKACiiigBkknlqWPQcmvD/AIlftJJ4Wa5ttF0z+2dQhOGt0f5gfpXt033G+lflR+0tf3enfGjXJbOZopVmyJFO1l+UdPWvSwGHjiJ2l0PMxuJeHhdLc2/iT+1h8QfFF5NBIX0SEMR9nVSGH414lq2sX2tTtPfXc1zMxzvkck11tn8Vrua3W31mzt9chUYAuRh8d/mwcVMNK8F+LYy9reT+Hb0Di3n/AHkJPsw5x+FfY0aMKWiifKVq0q25wO4sBnrRXTal8Ndb09fNiiXULXqLi1cSLj3Uc/pXOtA8ZKyApIOsbKQa7YtLc86UW9iLvSmik21XMiVG245etLn2pFp1FirhSMKWljUysVjVnYfwqMn6VDkluLlfRFdl9asW1xNasrQTSQuDw0bYNdRovw11/W03tbLY2x+9JeuEXHr3Nb9p4P8ACHhvH27UJtdnAy0VqCIlb0y2M8+1L4ti15mVovxC1yRfscltFrcJGDDcx+YcfUYP613sHwt0jxZamS4t38J3j7SkTyBkkY9gpGf1rnpvH0ljA1poWn2+kRH+OH/WN9eKreFbqW88X6XNcyvLO04yzH2NR7OVmzaFSEXZq9yd9H8JeE7iSJoLjXr6Fishk+SMMDj7o5x+NMvvH2oGMQ2Ah0y2wQIbcBcD3Jyf1rK8Qf8AIf1P/r6l/wDQzWfXRTp3SbOSrV1aQSTSXEheSRnduWJYtn8actNyKM11KCRzcze44Lil20ynr0oYnroMf5elfoX+xgx/4VdCP9s/1r89ZCK+2/2ZvF0/hr4c2SxLuidsstfG8VY6jgMLGtXdon1HD1GdbEOnFH1lSrXGaT8StO1DCyh4H/2gMfzrqra/trxQ0UyOD6GvhMNmGGxkeehNNH3VTD1aLtONi3RTA35U+u65iFFFFUAUUUUAFFFFABRRRQAUUUUAFFFFABRRRQAUUUUART/6s/Svyi/ae+b4yeIM8gScA/7or9XZ/wDVn6V+UH7TzY+M/iEf9NP/AGUV9Bk38R+h8/m3wI8p6qM049ABwOvHFJ/CKN3vX1/Kj5Fydy/pfiPU9EmMtjeTWxPURuQp/DpXXR/EKy1qBU8QaPBfOxz9piXypB9duK4H3p+6olT5ilNxO7Hgvw/4gUvo2vJbXD/dtdSITn0B4rA1jwPrWiDfcWTNDziaIblbHcEVh9VPbPXbwa3dD8bazoI2Wt7IYP8AnjKdyH8Knlcdh8yluYPIYjoR1yOlbuheC9b8RSA2WnTPb952G1B/wI8V6PpGu2GoeEbnXZ9CsTqsNwsQm2na2RnJWsHVvGmsawAsl40MQ6RW42KPwqoOUxSUYEi/DjRtEw2t60hfPzWtl87j8eRirP8AwlmmaDhPD2iwwheBc3IEsp9/myB+ArlWyxyx3t/ebk0v4k/WuiOHT3MfrFti7qviTU9bYm8upJF/uZwo/CqKsRxnj0o20m3bzXTGkoLQ55VJSBlz2wfWtrwf/wAjVpX/AF2H8jWNuzWz4N+bxXpX/XYfyNFRLkZEb86Kev8A/Ie1P/r6l/8AQzVCtDxBxr+p/wDX1L/6GaoVFPZGkt2N2mj+GnU0tW5mLT16UwNS7veoYkDLmvrn4F5/4V3YZ9/518i7vevrn4GN/wAW7sOf7386/F/Ftf8AGOt+aPv+CW5ZjZnoDMV4HFXbDWr3TP8Aj3uHT8c/zqlnNJX8Q4TM8Zgpc2HquJ/QFTD0qvxo7zQ/ildWa+XfL9oXswGD+ldppfj3TtS2jz1iY/wucGvEBSPlXVgSCO4r9LyvxDxuHahjFzLueBislpVHekrM+k47hJkDo4dfVTmpFbdXz9pnirVNN4juSU/umux0j4qMGVLmLPqwNfrmWcZ5bmTUVNRfZny2JyrEYZ3auj1GlrF0nxTY6tgQyjzD/Ca2FOa+8p1IVY80HdHkSi4uzHUUUVqSFFFFABRRRQAUUUUAFFFFABRRRSAin/1Z+lfk9+0//wAlo8Q/9df/AGUV+sNx/qz9D/Kvye/ae/5LR4h/66j/ANBFe/k/8R+h8/m3wL1PLF+6KZ/FT1+6KZ0avsonyMlqO9qXoKBQ1WSL9KdTVpQc0gPR/Df/ACS/Uf8Ar+j/APQawa3/AA5/yS3UD/0/J/6CawKrD/C2wrdAz82OpzjgULly21WbacEqpIFe5/s9/s6z/Fa8h1O/aS00GL/lp0Nwf9k19taF8E/B3h/S0srbRLRo1GCzxhmb3JPevLxebU8LPkWrOzD5XVxC5uh+WJYD88UrdxX1t+118AtH8MaPH4p0WBbQCTZcQp9056ED8DXyR/DXpYLF/XKXtEcWLwzws+RjV71teC/+Rs0r/rsP5GsXua2vBf8AyNmlf9dh/I11VG+RnLT+JFXxB/yH9T/6+pf/AEM1n1oeIj/xP9T/AOvqX/0M1niin8KYT+JibqSnU2tL3IChqKG61LAK+ufgX/yT2w/4F/OvkWvrr4GcfD6w/wCBfzr8Z8Wv+SffqvzPvuCNMy17HoPFGaOKfHG0hwtfwtTw1Ss/cR/Q8qkIobSsM9s1YWzbqasQwqnUZNevDLI07PEzt6HH9a7FNbJ5FzjA+tSxaf6tV3bSivQj7Cl/u8LS7mcn7T4kaXhG3EeuWiq23c2OOO1e2R/dFeMeF/8AkYLD/rof/QTXs8f3B9K/o3g/EVMTgVOoz4LNoqOI90dRRRX3p4oUUUUAFFFFABRRRQAUUUUAFFFFJgRT/wCrb6V+T/7T3/JaPEP/AF1/9lFfrBcf6s/Q1+T37T3/ACWjxD/11/8AZRXv5P8AxH6Hz+bfAvU8sX7opn8VPX7opn8VfZRPkZPUetLTeaUVZIjDvQtK3SkTpSEz0nw//wAknvz/ANRBP/QTWd4b0uXXNasbKMBhNKsZXucmtPw5z8J77P8Az/r/AOgmo/hzrcfh3xto+ozLmK3uEds9MZqIT5aU0kaVFzVIRk7I/UjwH4WtfB/hDTdJtEEcNtEqqMe3NdEnaqGjaxZ61plveWUyz20yBkdTkYxUPiDxLp3hfSZ9R1C5jt7aFSzOzAdO31r8yqRqTq2S3P0OFSnCnqzxH9tbxFHo/wAJ/sbHE97cBFj7soByf5fnX59MwcFlztPIr1v9or41S/Ffxc32d/8AiVWhK26n36n9BXkWNqgCv0XK8O8Nh1CR8FmddVsQ5IRa2vBf/I2aX/12H8jWNWz4L/5GzSv+uw/ka9Wo7QZ5NN3mVfEP/Iwan/19S/8AoZqktXfEP/Iwal/19S/+hmqdOnrBFT+JiU2pCrKQCCCenFaejeD9Y8RSEadZTTgdWCZQUueK6goSfQyB1p5U8YBbP90Zr0VfhnpegxiTxFrccBU5MFthnb274pr+PvD/AIdUR+HdCjkmX/l6vgXOfUA8fpWEq7t7qOiNFLWTMDRPh1ruuKJEtDa2/wDz3ujsT86+rfhH4dTR/BtlavNFdSqGJkhbKjnoD3r5P1zx5rviBdt3fyGDnEMeEQe2BxX1F+zym74eWhOTjcR6D5q/I/Ebm/sSbqq6uj7fhSNN45uJ6J9hSrHSncUba/jt1p7LbsfuSQlFFFc0tWaBRRRUrcRreGP+Rgsf+un9DXs614x4Y/5D9j/10/oa9nXtX9J8Dx/4S0/M+Czj/eR9FFFfoZ4YUUUUAFFFFABRRSUALRSUZpALRTDIBxz+VZeseJNM0WEzXt/Baxr1aWQKKpRcvhQm1Hc0Z8+W30r8oP2nf+S0+If+uv8A7KK+3fiD+2R4N8HrLFZ3A1W5AI2QHOD9elfFXjrxV4P+LfiK91S8e60G/uHz5rjdGewJ25Ir6DLadWjLmlHRnzuZTpVopQlc8jH3RSbe9dxqXwo1JV+06PNDrloV+9aSKWX6rnd+lcde2c+nu0dzDJC68FHUgj8K+vU4tHy0qbTIO1KvSkP3QaFp8yIegtIowKXmj6U9yWekeHv+ST33/YQX/wBBNc8vy/Wui8Pf8knvv+wgn/oJrm6vDe6mPEJSsmejeCvj94y8A6f9i0zVJPsw+7HN8wX6Vj+NPit4o+IMqtrWqzXEa5xCCVT8q5Dn1pfSl9Vo83Py6mft6lrNg0YByOM0U5mCrkg4+lS2trJesFgjaZm6BBk1vKoomHK5akFbXgv/AJG3Ss8Dzhn8jW7o/wAJ9ZvYhc33l6TZf89rt1X/AMdJz+ldL4YsfBXhvXLO3S6m17UfMwrRqVjHB67sVz1KylFpI2p0m5o891HSb3VPEmpJa2ss7fa5QPLXP8ZrqNP+E8lvCtzr+o22kW/XY7bnI+lP8RfFbVIdQ1Cz0qGPR4PNkRvsqhWPzHPzDmuD1K7n1OQPdTPcN13SsWP61MHUlFLY2kqdNtrVnf8A9v8AgjwqrJp+nvrd0v3Zrhtse71xz/OsfXvihr2tw+Qlwtja9obVdi4rjlHapKuNFR3dzGVeV9NB8kjSyGR2Z3PVmYmm9T6fSkpRXUkjFu6Hfhz696+xP2ef+Sc2v/Av/Qq+O6+xP2ef+Sc2v/Av/Qq/JvE+T/sSa9D7fgu7xzR6VShqSiv4mP31hRRRSGFFFFLqBreF/wDkP2H/AF0/oa9nWvGPC/8AyH7D/rp/Q17Otf0twR/yKl6s+Bzj/eR9FFFfoB4YUUUUAFFFRzSJDGWdgoAzycUAPzQWxXAeMfjZ4R8Fwl9R1eFGAz5asC1fNfxE/b4tbdprfw1YtO3RZ5SAB7110cLVrbI462Kp0d2fZN1qUFjG0k8ixoBncxwK8q8fftN+CvAsZ+0arDPc84gjYEnFfnt48/aK8aePiReapJbwH/ljCxArzOa4kuZC8js7E5LMcn869qlk7clzvQ8Gvmv2YH158Rv2+NTv/OtvDum/ZEPyiViSfrXzd4s+LXivxtIzatq08qsciNWwo/KuO/ip1e9RwNGi9jya2NrVFy3FdzI2SWY9yVpOuRRSNXfry8p58UolzTtWvdJkD2lzLbsO8bEV2Vj8VrieNLbW9Ntdat+jNImJcY7OuP1BrgKBWfs0Xzs9GuND8D+JgZdL1OTQ7ojJtb1gyZ/3+KxNX+Gmt6Hbmd7f7db9rmzO6M/jXMDp6Vq6D4s1Xw02dPvJoQDnarfL+IqbG0XGW5ksrRsVdCh9GpK9AX4iaT4jCR+JNBgunYjdd2ZEco569OfzqV/Aei69Gr+H9cj8yTO2xvzsce27kfrVc6jqwlDT3STw9/ySe+/7CCf+gmubr0vQ/h3ry/Dm+sBpzm5OoKQQRsZQCMg9Kjt/hfpmjKJfE2uwW/raWvzyfieBToVoyTIq0Zyakebnd8oRC7McACup8O/DbX/EGHhtNsHXzZPkVR9T1rdk8eeHPDMrDw9oMdxKOFur4Ake4HY1zmuePNZ8RyFry/lK9o14VfYCrk6kloY8tOO7OnHhHwl4V/e63rLancJ1tLEYA9iec1DP8VrXTY2tfDekWljERxO43SfXnvXAdeckk9zQvU8VUaL3kZuolpE0NW8Q6lrUpe9vprhvRjgfgOlXPBChfF2mN383+hrAPWtzwXx4s0v/AK7f0NaciiromE3zq5S14ka9qI/6eZP/AEM1TPNXfEX/ACMGpf8AXzJ/6EazmrSOwp/Ex235s0tMXrS5qzBj6BTaWmhofuFfYn7PP/JObX8f/Qq+Ntxr7J/Z3/5Jza/Q/wDoVfj/AInv/hFn8j7rgt/7ez0sjApKD1or+KpH75YKKKKRQvrSDrS+tIKS3INbwx/yMFj/ANdP6GvZ1rxjwx/yMFj/ANdP6GvZ1r+l+Cf+RUvU+Dzj/eR9FFFffnhhRRRTAK85+PerXOh/DPWb+0fZcwwsyN7gZFejV5b+0j/ySHxB/wBe7/yrWkr1IrzMa0uWnJrsfm7qHxG0jxpIR4l06Zbodby3dsk/7ucY/Cs8/Da01aPzvDmt2+oFuRaSkRyj6A4zXF3OPMbKh/ZulRx3E0Uwkjfy2XlSvGPpX6BRgqcU0j4CdZ1JtSNXV/DmqeH5TFqNjNaN28xSAfoe9ZnG7Hf0rqNL+J2u6aoilki1GDjMN2m5WHpWrJqPgnxJGRdWU2h3sn3pLVhJED6hDjH510e0fYyVOLd0cH0ors7j4WXsgE2h3dvrlpjIaFsSY91Pf8a5O90+702Ux3VtJAwOMOuKSlcJR0IDTad+GaB14+b6VfMZJXEwaSpI43lkVFjYs3Tiup0X4Za3rERnEH2O1X7010diinzFcpyuQF5OBT7Oxl1K5SG2DySMeEjUsT+VejWvhrwn4bf/AE67bXLsHmGFdkY9t+T/ACqxJ4+ezj+z6Jp8OkW3/TMZc/8AAsUo3lokDahuYlt8J9SZBLqksOi2xHJuiFf8F71uQw+EPDax+Vbya7eKQVknYpGCPZcVz15qNzqMzS3E0kjN1y1VQMVaw/M/eJ+sW+E9TPxI1nW/AutZm+zQ28irHDbnYqAsM4x1/GvK5riS4lLyu0jHuxya6rSRjwDrgPOZY+T25FcjjFOjRhC9gr1qkmtbEzYZff171HgZp3akrtWhwC59KevWo6erUCGd62/Bv/I2aV/12/oaxdtbXg3/AJGzSv8Art/Q1nL4WXT+NFXxF/yMGpf9fMn/AKEazWrT8RL/AMT/AFL/AK+ZP/QjWbjiiGyLn8TEWlpNtLWhmFONNp9S90kMj9q+yv2eP+Sb2n0P/oVfG+2vsn9nlcfDe0/H/wBCr8h8T1bJJ38j7vgxWx3yPSaKKTdX8U2b2P3i9haKTdSbvau6jhK2I+GNl3InVjFXHUUm6lr0I4TD4d3qzu+xjGrKS0Rp+FWLeIrH/f8A6Gval7V4t4T/AORisv8Af/oa9pXtX73wfKMsAuTa7Pis0/jXY+iiivvTxgooooAK8t/aS/5JD4g/64P/ACr1KvLf2kv+SQ+IP+uD/wAq3ofxY+phiP4UvQ/Ju4/1jVDt9qnm/wBa31qOv0mCvBH5zL42MKg9Rmmso4wOR0qWjGavlJ5mWbDULnTnWS2uHtpBzujYiussvipezR/Z9Zs7fWLfp/pKAuB7N1zXE/xUFe9ZuK6Fc7O6j0/wf4mUfZbibQL5vlWGfdJGT7EZNadx8KdJ8LtCviDWi7sokW3tVJdgeQd2MYIx3715xZr/AKZb+vmD+deqfFj/AJGOA7jkWlt/6JSs401e1zVysrkC+KtN0H5dA0WC3YcC5uVDy/XJzisXVvE2qa5IWvLqSUf3GbK/lWfu3UhrujSXU4ZVXfQFcr0Cr9BilyWzTNtOWtVFLYycnLcOelLR/FRVEnVaX/yIet/9dY/5iuS3V1ul/wDIh61/11j/AJiuS9KwpdTapd2Y7FJTm6U2tzAKcBTafQAlbPg3/kbNK/67f0NY9bHg3/kbNK/67f0NZy+FlU/jRX8Q/wDIe1L/AK+ZP/QjWcelaPiH/kP6l/18yf8AoRrPoh8KLmveYyinYpMGtDMSn00A56VueH/BmteJ5dum2E1z/uof51lUr06EfaVJJJdzSFOdR8sFdmJ7AEn2r7L/AGfFMfw2tC2B14zz1z0ryrwx+y7f3iJLrV6tnG3JiiPz/wD1q988I+E7XwjodtptqzSRQDAdzyeMc1+Gce53lmYZbPCxra3X5n6Twxl2Lw2IjVnCyaN7cKTBpKfX8v8A1jCYfSjG77s/XlBy+IbtNG006lFclbHVqq308tDRU4p3GAU6iivPjJo1SNTwn/yMVl/v/wBDXtK9q8W8J/8AIxWP+/8A0Ne01/R3A+uWJ+bPhM30xFh9FFFfop4YUUUUAFeWftJf8kg8Qf8AXBv5V6nXln7SX/JIPEH/AFwb+Vb4f+LH1RhX/hS9D8mZv9c31pgp8/8ArX+tM+tfpMHaCPzl/GxaM0vakqiRG6UgpW6UlMRNZf8AH5b/APXQfzr1X4tf8jHbj/pyt/8A0UteVWX/AB+2/wD10H869U+LX/IyW/8A15W//opazX8SxTd6Zxi96fTV706vSZ50QooopFC7eOtC0v8ADSLQTuzrtL/5EHWv+ukf8xXJ11mlf8iFrX/XSL+YrkqxpdbnVP3bJkbUo6UNQvStjnFp9Mp2aAFrZ8F/8jZpX/Xb+hrE3D1re8DWkt54s0sRKzbZckqO2DWNScYxfO0jSjB1J+7rYpeIf+Q/qX/XzJ/6Eaz8jOCcV6lZ/A/xJ4q1m+kW2ayge4kKzXCkAjeeRXqXhX9mXSNHaKbVp31GTvHuwg/Af1r5LG8SZblqbq11ddD6DD5Pi8VL93E+Z7DRtQ1RgllZTXTE4AjTNem+F/2c/EeubXvmTTrduzHL/kK+odJ8O6VoUSxafYw2yqMAooB/OtaMAfwrn1wM1+N5z4saOjgY/M+3wXBXKufES1PLfDP7Pfhrw/5cssbX8695zkD6V6TZ2Nvp8CQ20KQxIMKqjAFT5OaK/FM04szPMpuNWenlsff4TKcLg/4cQpV60lKvWvCoylKjUcnc9GpBRceUdR+NFFeSdYUUUUBYKKKKBGp4T/5GKx/3/wChr2kV4t4T/wCRisf9/wDoa9pr+kOBf+RWvU+FzlWxA+iiiv0U8EKKKKACvLP2kv8AkkHiD/rg38q9Tryz9pL/AJJB4gwM/wCjv/Kt8P8AxY+qMK/8KXofkzP/AK1vrUZqSb/Wt9aZX6VD4EfnL+Ni/wAIoo7Uu00yRrdKSlbpSUxE1l/x+wf9dB/OvVPi1/yMlv8A9eVv/wCilryuy/4/oP8AroP516p8Wv8AkZLf/ryt/wD0UlZf8vUH/Lo41adTVqTtXpNnBHYbRR0o60FDu1AGKTnpS5HcigS0dzrdK/5EHWv+ukX8xXJ11ml8eAta7/vIunPcVym0npg/Q5rmp21sdNboRNTlXgVtaB4J1vxQyf2bp81wpP3wMKPfJr1vwr+y9qF5sl1m7Fsp5McfJFeRj86wOX0+etVSt5q504fLcVinanB/ceGKu7gBmbsAM11Xhn4X+JvFBQ2mnusD9JXOB/Kvqjwv8FfDHhdo5Y7Rbm5X/lpMu7+fSu4WGOFAkaLGo4CoOK/Jc28VMDh7xwfvNH3eB4Nq1YqVaR4D4T/ZdRGWbXL8yD/njEMfrXr/AIb+HWgeGIQLKxRZB/y0bk10KjFOWvxfHceZtmVezlywfY++wnD2DwSvy3Y4qF4UbRTStOor89x2Iq1q0nOTep9NRpwpr3FYZs9qcFpaK870Nt9xNvvSbadRR1AaeKF60P2oXrXqYf8AgVPT9TGpvGw6iiivLNwooooGFFFFBJqeE/8AkYrH/f8A6Gvaa8W8Jf8AIxWP+/8A0Ne1Dsa/pDgX/kVr1PhM4f8AtA6iiiv0U8EKKKKACvNv2gNPk1X4X6zaRY8yaJlXJxzivSa8v/aOd4/hJrzRtsbyG+YfStaN/aRt3MqtvZyuflv4o8A694aeRr7TpoY92FkK8MPWub2nuK7fRvitr2gfuI7yS7s/um3ujvXGfQ1uDxV4I8Xx7NZ0p9Dvn63Vjgxs3uvGK+/pSnyLmPgasY875Ty9elLXo158G/t0JufDWq2usQ9fKV/Lkx9GxmuG1bQdS0KUx3+n3FrJ2Dp1+hHFdUZrY5nBme3eminq24dMH0NAFaJ3IasPsv8Aj9t/+ug/nXqnxa/5GS3/AOvK3/8ARS15dZf8fluP+mg/nXqnxc/5GS3/AOvK3/8ARS1n/wAvUXy/ujilqSo1qTOF5P6Zr0Zb3POWwNQtSwWs104jt4pJ5SceXGCTXYaT8KtYu4xPevDo9p1M124GfoBzWUqsIWuXGEp7I4qrul6Pfa1drb2VvJcSHosaZrtGt/BPg9tkpn8S3Y+8oO2HPb8PwqrqXxa1X7MbTR4INFtD0W2XDj8e9YSrSlflR0KnBL3ju/BfwN1jVPDt/pt9Mmnm5McpROZMDB5HavS/DP7Pfhjw80ck0DX8wHPnHj8hXG/stXk+oXOtTXU8k052/Mxzu6da+ha/mzjzizMMoxrwWFlZWv8AM/XOH8lweOw0cTUV2VNN0620uMR2kMdsgGMRoF4+lXv4abSGv57xGY4nGS5q02/mfo1LC0qKtTSQbaNtLRXnO7Oi1hNtGMUtMrpwcV7ZET+Bj6KRelLRiv40vUdP4UHeiiiuYtBQOtFApdUA1u1C9aG7UL1r1MP/AAKnp+phU+KA6iiivM06HSFFFFNW+0IKKazbRkjP0q7p+l3epf8AHvbSOfpivQoZficU7Yem2ctbEU6KvJlnwm23xFYk8fP/AENe1r90V5x4e8B3cF9Bd3hjQoc+WhJx79K9HX7tf0jwtl1fLcCqNdanwmY1o163PEWiiivszygooooAK8v/AGjv+SR6/wD9cH/lXqFeXftIHHwi1/8A64P/ACreh/Fj6mFf+FL0PyYf77fU02lkb5247mk3V+jxXuK5+eSfvuxJa31zZTCSC4lgcHIMblcV3OkfGbVbNVttWjh1y0IA8u8j3EAdgw5HX1rgcc5pJBupOmnsP2lj1KRfh943fzI3m8LXzdUcloifqc4rP1r4K63awm802SDWLEDiSxYMT3yRkkV58uFXHQe1XtJ8RaroMgksL+a3Of4W4+lZ8kkXzxkNW3lsdThiuI2glVxlJBtI5969O+LTeZ4jtxGPMb7DbkKozn90vpVLSfjK9/NBB4i0a11mIkL5n+rkySOd2D/KvSPH3jyw8NavE+maLB9vNvF+/nbftBjXAxgdBj8qj2k/arQ15Iey3POfDvw51vXoxNHYvDBxunuf3caj1ycVvt4T8J+FwW1jWW1SZfvW+nEMB7bhmua13x9rPiIt9ru2KN1jj+VMewrBLeZgtyR09q9JxlPc8vmjDY9Ak+LCafCYfD2jWumRA8TOm6Vvcls1xWp69qOtTGS9vJ7gk52u5K/l0qkVzSgYojRjETqSkPHrgD6DFIwzTd3vRu963tZGUnoz6H/ZNX/kMnGOB047ivoqvnb9kv5v7aGew/mK+i9vvX8U+Jv/ACOn6I/fuE9MthYbRRRX5Aj7cKKKKYBTKfTW4rowv8ZGc/gYq9KWkXvS08V/Gl6hT+FBRRRXNbuWFC9aKKneVkK41u1C9aGHSljRpATEjSY4IXk17uBo1K1Kcaau3/mcuIqRp8spMWl2n0zW3pfg3VNSUOsSxx+rHmur034b28LLLdSGWTH3V4FfUZbwbjcY+at7qPLrZtTirQep57b2s9422CJpW6fKM10mn/D3ULwK8rCBD1z1r0mx0m1sV2wQrH+FW1jK55zX6Xl3BOAwr563vvzPnsRmlar7sdEcrpngHT7IKZgbiQfxMT/Kuhhs4rcARxhMcfKMVa20ba+9o4WjQio04pW7I8qdWpP4mRqm1s96lFJtpa6jIWiiigYUUUUAFeXftIf8kh1//rg38q9Rry79pD/kkOv/APXB/wCVb0P4sfUwr/wpeh+Ssn32+p/nSZpZPvt9T/Okr9JhrBH5xU92bFopR92kqyQpR9KSlXrQA+3/AOPy2x/z1X+der/FTb/wkUBAwTaQZ/79LXlNv/x+23/XVa9W+Kn/ACMVsP8Apzt//RS1ha9VGzdqJx2BS0lFepex5S7hSE0NSUFAaKKKb2E9mfRH7JP3tZ+n9RX0dXzj+yT97WfoP5ivo7tX8UeJ3/I7foj+g+Ev+RZAZRRRX4+j7YKKKKYgpG5paK6ML/FRnP4WC9KKKK2r0qk6z9mupMZKME2FJuFDdKbXTHLqluarojP2nNsOyKWmU5eldMZYTCrZyffoS4VJdRezfSu7+GtnC8F25iUuJMBiBkZFcH3r0T4Y/wDHnd/9dV/9Br77gvFOtipU+VWseHm0PZ0ovqdokYjGFGB7VI1OpPav3P0R8bHdtjlp1MHan1oMKKKKBBRRRQAUUUUAFFFFABXl37SH/JItf/64P/KvUa8u/aQ/5JDr/wD1wf8AlW9D+LH1MK/8KXofkq/32+pptOf/AFjfU0lfpVN+4j83qe9NjgflpKFxjmlwKLiEpV60lKKoRJB/x9Qf9dB/OvVfij/yM0I/6cbf/wBErXlVv/x8wf74/nXqvxQ/5GaH/rwt/wD0SlZL+Mi5O9I4yl7ik9aXuK9GW558dhWpKVqSmAUUUU3sKWzPof8AZL/5jP0H8xX0ZXzn+yX/AMxr8P5ivoyv4n8Tv+R2/RH9A8Jv/hOggooppJzX5DCLkr2Pt+ZXHUjdKTJozXo08DVqLmei8zCVaK2Eooor0qFHCYecZOfM+yOaUqlSDsOHSlpF6UtTiMykpSVKPKOnQXKmwopGz2oztHJxXiynOfvNt3OnkjBXFpM81PDZ3FyMxQySD1VSaJrKe2I86GSI/wC2pFaywuIjFTcHYFiKe1yD+IV6L8L/APjzu/8ArqP/AEGvO/SvRPhf/wAed3/11H/oNfonAb58bL0PCzp3oxZ3NPptOr+hEfEIKKKKYwooooAKKKKACiiigAooooAK8u/aQ/5JD4g/693/AJGvUa5H4m+DT488J3+jrP5H2qMxlj0GRWtKXLNSZjWjzU5R7n45ycSP9aaK+iviN+xT4x8LySzafs1WzU5HlY3frXhWseGdT8PXDQahYT2ki8ESRkfrX6DhcTTqQ0Z8JVwtSnO9jLop305+lKVPpXZpLY4Ze67Mb93mhW3GlZTjnj603pTM2ya3XdcQn/poP516n8UjjxREP+nC3/8ARKV5ba/8fEP/AF0H869R+Kf/ACNEX/Xhb/8AolKyj/GRrJfuTjgN1O24OaavapK9RnnR2Gk0AZpdtCqeanYpa7DSvzUu2prW1nvW228Mk7f3YkLH9K9H8G/s9+L/ABjNGUsWsYW58644GD7VyVcRTpxbudFPD1KklG253X7Jox/bR9h/MV9Fbq4n4d/BU/B+1Kvctc3N4uZf7o78fjXaV/IHiI8LWzd1Kk7aLRH7xw7Rnh8IoNDt1JjdzSU5a/MI4yjTi/Yxt5vc+sdKcnqxNvvRtp1FefVxlWu/eehpCjGCE2+9NqQ96jqMM/36RckuRjlpaF+7RRX/AIsvUcLcqCtzwroLaxefMP3Q4NYYYqQQMmvWPBtnHaaTG6qBI/JIr63hTK45ljVGprGOtjxc1xDo07I0bHSbexhCIgGPaoNe06G60+bzEBwhIOORxWt0GTWXr11Hb6bcMzbfl2/iRX75jcJg6GDnzQXKkz42lUnKpF3PHp4xHIQPWvQfhf8A8et3/wBdR/6DXnUjlpGPvXofwtz9lu/+uo/9Br8j4I5f7SqOO2p9Pm1/q8LnfUUUV+/I+NCiiimAUUUUAFFFFABRRRQAUUUUAFMp9IeaBMiaNWUgqCD2IrkvFXwp8MeMbeSLU9It5y4xv2YI967LbRVxqSj8LsZypxlufIPj39gjSdUaSfQLxrGVskJwV9s180fED9ljx74D82V9MfULVTxJbqeRX6rVXurWK6jMc0ayIeoYZFelQzGrR31PMxGW0qyutGfipfWdxYymG7tpIZhwUkGCtV1xmv1t8dfs++D/AB7atHfaXD5uMLIqjK/SvmX4ifsASQF5vDOoFh97yZRj8K93DZrCo7VNDw6+Vzpq8NT4ztv+PiH/AK6L/OvUfip/yNEPvY24/wDIKVm+KvgX4z8D3irf6RM8aSD97ENwPNdl408C694q8WWqabps0xW0twzbeAfJSvSjiaXtOZPQ8+eGrez5OXU8uXtT9rPwgy1fRfgj9jnXNUdZ9YuVsoXwSq/er37wX+zT4N8Iwoxslvbpessqg5NPE5tQo6wdx4XKqtXSeh8T+D/hH4p8aTCOx02Taf8AlowO2vefAv7F9xOIrjXbwgfxRRcCvq+zs7bT4VitLaO3QDGEFWOdtfMYnOKtT4ND6bD5TTpbu5w/g/4H+FvBMaiz0+NpB/y0cZJrtFt44FCxqEHooAqdc7aaa8SVerNayPWVCnDWK1OS8cf6+2/3P61zFdL42b/TLb/dNc7X80cbSl/acn5H6RletBMZTloFKa/P+h7XUKKKKlCFPeo6fTK6cJrXREvgY9RxStSKflooxH8SXqKC91B/TmvUPBesQ3GmRo7BWA6Zry/pShmX7pI+lfQ8PZ1PJsQ6kVdPocGMwixUOVux7heXkdvA0hYYUZ615j4s8Uf2tJ5UJxCvp3rnvOmbhpWYemabXuZ1xhWzClLDxXKmcOEyuOHlzSdxlei/C3/j1u/+ug/9Brz2vRPhfxa3P+//AErt4C1x0n5EZz/CSO720tJS1/QSPiQooopgFFFFABRRRQAUUUUAFFFFABRRRQAUUUUAFJS0UAJikZe3anUUAZ+r6TZ6naut1bRzrtIw6g1xGj6XaWUbtDbRxszEFgozwcD9AK9Dn5iYex/lXEaeuYW9pH/9CNPmklZMnlTd7FnccY7U70pAvvTttYO19TWysJtFLSUU7kMkX7tNNKv3aQ0wOO8a/wDH9bf7h/nXPV0PjX/j9tv9w/zrnq/m/jT/AJGUj7/K/wCAFFFFfnkT3AoooqhBTKf7U3bXTg/46ManwMUdKWgDtRSxH8WXqVB+6rhRRRWVOjOtK1NXYSnCKvJhRVyx0i81BgIIGYHuRxXT6b8NbqYBruZYBnJVRuzX1+XcKY/HSuo8q7s8ytmNCnG8ZanGLl8hfmbHAHWvSvhxay21rP5sbR7nyNwxnitfS/CGnaZtZIQ8g/iatyOMJwFwK/YOHOGP7Fm5znzNny2LzKWKjytWHZFLSbaWv0M8UKKKKACiiigAooooAKKKKACiiigAooooAKKKKACiiigAooooAZL/AKs/Q/yridLw1u/PHmP/AOhGu2kI2kf3uK45bG70kyq9uzwBmcSJz1JNTIaLG3jpxQ3Sq8OoQTthWw3dSeR+FTk5BrO3UoZRS4zSYNAtyQfdpppw+7TKoRx/jT/j+tv9w/zrnq6Lxp/x+23+4f51zpr+buNv+Rkz7/Kv4AUUmaWvz9bHthRRRTjHmdiJSUdwopdpboM1uaX4M1LUmVvL8qI9Wavp8ryTHYmtFwpvl7nn4nF0qUdTCOAOoqxbafcXhAhiMhPpXo2l/Duxs/mnLTOeueldFZ6TaWI/dQqp9hX6TheBIyqe0xUvkeBUzhcvLA820z4f6jfYNz/o6fhmus0vwHYafgvH9obv5nI/Wuq47UmK+/wOQYDAfBTV+54tbHVa27Ibe1itY9sUaxj0UYqZR7UtFfQctnpscHM3uFOptOq0gFoooqgCiiigAooooAKKKKACiiigAooooAKKKKACiiigAooooAKKKKACkbpS0hoAzbzRbTUsmaFcn+JRg/nWRN4ZurXP2W73Rdo5uf1rp9vtQVz1FIDimuJ7JttxaSoP+eigFanhvILgZjkVq6owKwKkblPZuRWdeeGrO6UkKYX7NHxUgjLJ7UtRz6DqVhzBMt2n92QYI/Gq0mofZ9q3EM1vJ0LOvyH6GpWjTYHN+Nv+Py2/3D/Oucrc8ZXIuLqDyyr4Xnac1m2uj3d5gxQyN9FJr8D4uy/FYzNLUIN3PtsuxNOnh7yfUqYoHp37Cuz0v4eTXG2S6YRL3jU112meD9N01t6W4aT+85Lfzp4DgTEVnz4qfKuxNbOIxVonmWneGtQ1Jh5cDIp/jk4FdRpnw1DKDeTbj6L0rvfKVQAqgD2FKFr9Ky/hfLsDBJQuz5+tmNaqrGZpvhuy0lcQQIp7tjk1oqu32qQZo2ivsKVONKPLFaHnOo5bjlpKBTq1M9w20tFFMYUUUUAFFFFABRRRQAUUUUAFFFFABRRRQAUUUUAFFFFABRRRQAUUUUAFFFFABRRRQAUUUUAFFFFACUtFFIBhX8aimtIrqMpIgZfQiiiiwGU3hLTmuFl8oZC4xWnDp8Nuv7tAv0FFFZSpxc+e2pfNK1rkwUelO20UVoiA20baKKoA20baKKBWF20tFFAwooooAKKKKACiiigAooooAKKKKACiiigAooooAKKKKAP/2Q==;" vertex="1" parent="1">
          <mxGeometry x="200" y="-10" width="70" height="71.4" as="geometry" />
        </mxCell>
        <mxCell id="nXj0Xn3OutAvkKhU1raj-51" value="PyPI" style="text;html=1;align=center;verticalAlign=middle;whiteSpace=wrap;rounded=0;fontFamily=Times New Roman;fontStyle=1;fontSize=13;" vertex="1" parent="1">
          <mxGeometry x="205" y="61.4" width="60" height="30" as="geometry" />
        </mxCell>
      </root>
    </mxGraphModel>
  </diagram>
</mxfile>
